<?xml version="1.0" encoding="UTF-8" standalone="no"?>
<!DOCTYPE svg PUBLIC "-//W3C//DTD SVG 1.1//EN"
 "http://www.w3.org/Graphics/SVG/1.1/DTD/svg11.dtd">
<!-- Generated by graphviz version 7.0.6 (20230106.0513)
 -->
<!-- Pages: 1 -->
<svg width="1874pt" height="548pt"
 viewBox="0.00 0.00 1874.15 548.00" xmlns="http://www.w3.org/2000/svg" xmlns:xlink="http://www.w3.org/1999/xlink">
<g id="graph0" class="graph" transform="scale(1 1) rotate(0) translate(4 544)">
<polygon fill="white" stroke="none" points="-4,4 -4,-544 1870.15,-544 1870.15,4 -4,4"/>
<!-- [root] aws_eip.public_a (expand) -->
<g id="node1" class="node">
<title>[root] aws_eip.public_a (expand)</title>
<polygon fill="none" stroke="black" points="1796.5,-252 1685.5,-252 1685.5,-216 1796.5,-216 1796.5,-252"/>
<text text-anchor="middle" x="1741" y="-230.3" font-family="Times,serif" font-size="14.00">aws_eip.public_a</text>
</g>
<!-- [root] provider[&quot;registry.terraform.io/hashicorp/aws&quot;] -->
<g id="node25" class="node">
<title>[root] provider[&quot;registry.terraform.io/hashicorp/aws&quot;]</title>
<polygon fill="none" stroke="black" points="1363,-108 1110.46,-90 1363,-72 1615.54,-90 1363,-108"/>
<text text-anchor="middle" x="1363" y="-86.3" font-family="Times,serif" font-size="14.00">provider[&quot;registry.terraform.io/hashicorp/aws&quot;]</text>
</g>
<!-- [root] aws_eip.public_a (expand)&#45;&gt;[root] provider[&quot;registry.terraform.io/hashicorp/aws&quot;] -->
<g id="edge3" class="edge">
<title>[root] aws_eip.public_a (expand)&#45;&gt;[root] provider[&quot;registry.terraform.io/hashicorp/aws&quot;]</title>
<path fill="none" stroke="black" d="M1685.16,-218.14C1682.4,-217.41 1679.67,-216.7 1677,-216 1614.84,-199.75 1597.08,-202.77 1537,-180 1487.19,-161.12 1433.03,-131.92 1398.59,-112.17"/>
<polygon fill="black" stroke="black" points="1400.71,-109.35 1390.3,-107.37 1397.2,-115.41 1400.71,-109.35"/>
</g>
<!-- [root] local.common_tags (expand) -->
<g id="node29" class="node">
<title>[root] local.common_tags (expand)</title>
<ellipse fill="none" stroke="black" cx="956" cy="-90" rx="136.48" ry="18"/>
<text text-anchor="middle" x="956" y="-86.3" font-family="Times,serif" font-size="14.00">[root] local.common_tags (expand)</text>
</g>
<!-- [root] aws_eip.public_a (expand)&#45;&gt;[root] local.common_tags (expand) -->
<g id="edge1" class="edge">
<title>[root] aws_eip.public_a (expand)&#45;&gt;[root] local.common_tags (expand)</title>
<path fill="none" stroke="black" d="M1685.23,-217.84C1682.45,-217.19 1679.7,-216.57 1677,-216 1578.81,-195.09 1551.16,-205.27 1454,-180 1408.69,-168.22 1400.47,-155.15 1355,-144 1327.39,-137.23 1173.64,-117.65 1065.28,-104.28"/>
<polygon fill="black" stroke="black" points="1065.81,-100.82 1055.46,-103.07 1064.95,-107.77 1065.81,-100.82"/>
</g>
<!-- [root] local.prefix (expand) -->
<g id="node30" class="node">
<title>[root] local.prefix (expand)</title>
<ellipse fill="none" stroke="black" cx="1741" cy="-90" rx="107.48" ry="18"/>
<text text-anchor="middle" x="1741" y="-86.3" font-family="Times,serif" font-size="14.00">[root] local.prefix (expand)</text>
</g>
<!-- [root] aws_eip.public_a (expand)&#45;&gt;[root] local.prefix (expand) -->
<g id="edge2" class="edge">
<title>[root] aws_eip.public_a (expand)&#45;&gt;[root] local.prefix (expand)</title>
<path fill="none" stroke="black" d="M1741,-215.59C1741,-191.61 1741,-148.14 1741,-119.42"/>
<polygon fill="black" stroke="black" points="1744.5,-119.62 1741,-109.62 1737.5,-119.62 1744.5,-119.62"/>
</g>
<!-- [root] aws_eip.public_c (expand) -->
<g id="node2" class="node">
<title>[root] aws_eip.public_c (expand)</title>
<polygon fill="none" stroke="black" points="1034.5,-180 923.5,-180 923.5,-144 1034.5,-144 1034.5,-180"/>
<text text-anchor="middle" x="979" y="-158.3" font-family="Times,serif" font-size="14.00">aws_eip.public_c</text>
</g>
<!-- [root] aws_eip.public_c (expand)&#45;&gt;[root] provider[&quot;registry.terraform.io/hashicorp/aws&quot;] -->
<g id="edge6" class="edge">
<title>[root] aws_eip.public_c (expand)&#45;&gt;[root] provider[&quot;registry.terraform.io/hashicorp/aws&quot;]</title>
<path fill="none" stroke="black" d="M1034.63,-148.05C1041.15,-146.63 1047.71,-145.25 1054,-144 1128.25,-129.23 1213.04,-114.86 1274.99,-104.82"/>
<polygon fill="black" stroke="black" points="1275.47,-108.29 1284.79,-103.24 1274.36,-101.38 1275.47,-108.29"/>
</g>
<!-- [root] aws_eip.public_c (expand)&#45;&gt;[root] local.common_tags (expand) -->
<g id="edge4" class="edge">
<title>[root] aws_eip.public_c (expand)&#45;&gt;[root] local.common_tags (expand)</title>
<path fill="none" stroke="black" d="M973.31,-143.7C970.86,-136.24 967.93,-127.32 965.19,-118.97"/>
<polygon fill="black" stroke="black" points="968.54,-117.95 962.09,-109.54 961.89,-120.14 968.54,-117.95"/>
</g>
<!-- [root] aws_eip.public_c (expand)&#45;&gt;[root] local.prefix (expand) -->
<g id="edge5" class="edge">
<title>[root] aws_eip.public_c (expand)&#45;&gt;[root] local.prefix (expand)</title>
<path fill="none" stroke="black" d="M1034.92,-147.3C1041.33,-146.03 1047.79,-144.89 1054,-144 1305.69,-107.78 1372.1,-134.46 1625,-108 1634.31,-107.03 1644.02,-105.85 1653.69,-104.58"/>
<polygon fill="black" stroke="black" points="1654.05,-108.07 1663.49,-103.26 1653.11,-101.13 1654.05,-108.07"/>
</g>
<!-- [root] aws_instance.app_server (expand) -->
<g id="node3" class="node">
<title>[root] aws_instance.app_server (expand)</title>
<polygon fill="none" stroke="black" points="1698,-180 1546,-180 1546,-144 1698,-144 1698,-180"/>
<text text-anchor="middle" x="1622" y="-158.3" font-family="Times,serif" font-size="14.00">aws_instance.app_server</text>
</g>
<!-- [root] aws_instance.app_server (expand)&#45;&gt;[root] provider[&quot;registry.terraform.io/hashicorp/aws&quot;] -->
<g id="edge9" class="edge">
<title>[root] aws_instance.app_server (expand)&#45;&gt;[root] provider[&quot;registry.terraform.io/hashicorp/aws&quot;]</title>
<path fill="none" stroke="black" d="M1557.31,-143.52C1516.77,-132.56 1464.82,-118.52 1424.83,-107.71"/>
<polygon fill="black" stroke="black" points="1425.92,-104.38 1415.35,-105.15 1424.09,-111.14 1425.92,-104.38"/>
</g>
<!-- [root] aws_instance.app_server (expand)&#45;&gt;[root] local.common_tags (expand) -->
<g id="edge7" class="edge">
<title>[root] aws_instance.app_server (expand)&#45;&gt;[root] local.common_tags (expand)</title>
<path fill="none" stroke="black" d="M1545.6,-153.6C1444.02,-143.67 1258.94,-125.29 1101,-108 1089.64,-106.76 1077.78,-105.42 1065.96,-104.07"/>
<polygon fill="black" stroke="black" points="1066.48,-100.61 1056.15,-102.94 1065.68,-107.56 1066.48,-100.61"/>
</g>
<!-- [root] aws_instance.app_server (expand)&#45;&gt;[root] local.prefix (expand) -->
<g id="edge8" class="edge">
<title>[root] aws_instance.app_server (expand)&#45;&gt;[root] local.prefix (expand)</title>
<path fill="none" stroke="black" d="M1651.72,-143.52C1667.11,-134.46 1686.09,-123.3 1702.58,-113.6"/>
<polygon fill="black" stroke="black" points="1704.33,-116.63 1711.17,-108.55 1700.78,-110.6 1704.33,-116.63"/>
</g>
<!-- [root] aws_internet_gateway.main (expand) -->
<g id="node4" class="node">
<title>[root] aws_internet_gateway.main (expand)</title>
<polygon fill="none" stroke="black" points="326,-252 158,-252 158,-216 326,-216 326,-252"/>
<text text-anchor="middle" x="242" y="-230.3" font-family="Times,serif" font-size="14.00">aws_internet_gateway.main</text>
</g>
<!-- [root] aws_vpc.main (expand) -->
<g id="node23" class="node">
<title>[root] aws_vpc.main (expand)</title>
<polygon fill="none" stroke="black" points="1158.5,-180 1063.5,-180 1063.5,-144 1158.5,-144 1158.5,-180"/>
<text text-anchor="middle" x="1111" y="-158.3" font-family="Times,serif" font-size="14.00">aws_vpc.main</text>
</g>
<!-- [root] aws_internet_gateway.main (expand)&#45;&gt;[root] aws_vpc.main (expand) -->
<g id="edge10" class="edge">
<title>[root] aws_internet_gateway.main (expand)&#45;&gt;[root] aws_vpc.main (expand)</title>
<path fill="none" stroke="black" d="M326.33,-217.09C329.25,-216.7 332.15,-216.33 335,-216 647.96,-179.6 731.37,-226.43 1043,-180 1046,-179.55 1049.06,-179.03 1052.14,-178.46"/>
<polygon fill="black" stroke="black" points="1052.74,-181.91 1061.83,-176.46 1051.33,-175.05 1052.74,-181.91"/>
</g>
<!-- [root] aws_nat_gateway.public_a (expand) -->
<g id="node5" class="node">
<title>[root] aws_nat_gateway.public_a (expand)</title>
<polygon fill="none" stroke="black" points="1808,-324 1646,-324 1646,-288 1808,-288 1808,-324"/>
<text text-anchor="middle" x="1727" y="-302.3" font-family="Times,serif" font-size="14.00">aws_nat_gateway.public_a</text>
</g>
<!-- [root] aws_nat_gateway.public_a (expand)&#45;&gt;[root] aws_eip.public_a (expand) -->
<g id="edge11" class="edge">
<title>[root] aws_nat_gateway.public_a (expand)&#45;&gt;[root] aws_eip.public_a (expand)</title>
<path fill="none" stroke="black" d="M1730.46,-287.7C1731.94,-280.32 1733.7,-271.52 1735.35,-263.25"/>
<polygon fill="black" stroke="black" points="1738.75,-264.08 1737.28,-253.59 1731.89,-262.71 1738.75,-264.08"/>
</g>
<!-- [root] aws_subnet.public_a (expand) -->
<g id="node21" class="node">
<title>[root] aws_subnet.public_a (expand)</title>
<polygon fill="none" stroke="black" points="1338,-252 1208,-252 1208,-216 1338,-216 1338,-252"/>
<text text-anchor="middle" x="1273" y="-230.3" font-family="Times,serif" font-size="14.00">aws_subnet.public_a</text>
</g>
<!-- [root] aws_nat_gateway.public_a (expand)&#45;&gt;[root] aws_subnet.public_a (expand) -->
<g id="edge12" class="edge">
<title>[root] aws_nat_gateway.public_a (expand)&#45;&gt;[root] aws_subnet.public_a (expand)</title>
<path fill="none" stroke="black" d="M1645.6,-289.39C1642.7,-288.91 1639.83,-288.44 1637,-288 1512.19,-268.49 1476.82,-274.23 1349.28,-252.3"/>
<polygon fill="black" stroke="black" points="1350.24,-248.91 1339.79,-250.64 1349.04,-255.81 1350.24,-248.91"/>
</g>
<!-- [root] aws_nat_gateway.public_c (expand) -->
<g id="node6" class="node">
<title>[root] aws_nat_gateway.public_c (expand)</title>
<polygon fill="none" stroke="black" points="862,-324 700,-324 700,-288 862,-288 862,-324"/>
<text text-anchor="middle" x="781" y="-302.3" font-family="Times,serif" font-size="14.00">aws_nat_gateway.public_c</text>
</g>
<!-- [root] aws_nat_gateway.public_c (expand)&#45;&gt;[root] aws_eip.public_c (expand) -->
<g id="edge13" class="edge">
<title>[root] aws_nat_gateway.public_c (expand)&#45;&gt;[root] aws_eip.public_c (expand)</title>
<path fill="none" stroke="black" d="M699.61,-289.06C634.05,-275.82 551.96,-258.2 547,-252 537.01,-239.5 536.4,-227.98 547,-216 570.75,-189.16 796.59,-172.99 911.92,-166.42"/>
<polygon fill="black" stroke="black" points="912.1,-169.92 921.89,-165.86 911.71,-162.93 912.1,-169.92"/>
</g>
<!-- [root] aws_subnet.public_c (expand) -->
<g id="node22" class="node">
<title>[root] aws_subnet.public_c (expand)</title>
<polygon fill="none" stroke="black" points="860,-252 730,-252 730,-216 860,-216 860,-252"/>
<text text-anchor="middle" x="795" y="-230.3" font-family="Times,serif" font-size="14.00">aws_subnet.public_c</text>
</g>
<!-- [root] aws_nat_gateway.public_c (expand)&#45;&gt;[root] aws_subnet.public_c (expand) -->
<g id="edge14" class="edge">
<title>[root] aws_nat_gateway.public_c (expand)&#45;&gt;[root] aws_subnet.public_c (expand)</title>
<path fill="none" stroke="black" d="M784.46,-287.7C785.94,-280.32 787.7,-271.52 789.35,-263.25"/>
<polygon fill="black" stroke="black" points="792.75,-264.08 791.28,-253.59 785.89,-262.71 792.75,-264.08"/>
</g>
<!-- [root] aws_route.private_a_internet_out (expand) -->
<g id="node7" class="node">
<title>[root] aws_route.private_a_internet_out (expand)</title>
<polygon fill="none" stroke="black" points="1826,-396 1628,-396 1628,-360 1826,-360 1826,-396"/>
<text text-anchor="middle" x="1727" y="-374.3" font-family="Times,serif" font-size="14.00">aws_route.private_a_internet_out</text>
</g>
<!-- [root] aws_route.private_a_internet_out (expand)&#45;&gt;[root] aws_nat_gateway.public_a (expand) -->
<g id="edge15" class="edge">
<title>[root] aws_route.private_a_internet_out (expand)&#45;&gt;[root] aws_nat_gateway.public_a (expand)</title>
<path fill="none" stroke="black" d="M1727,-359.7C1727,-352.41 1727,-343.73 1727,-335.54"/>
<polygon fill="black" stroke="black" points="1730.5,-335.62 1727,-325.62 1723.5,-335.62 1730.5,-335.62"/>
</g>
<!-- [root] aws_route_table.private_a (expand) -->
<g id="node11" class="node">
<title>[root] aws_route_table.private_a (expand)</title>
<polygon fill="none" stroke="black" points="1667.5,-252 1508.5,-252 1508.5,-216 1667.5,-216 1667.5,-252"/>
<text text-anchor="middle" x="1588" y="-230.3" font-family="Times,serif" font-size="14.00">aws_route_table.private_a</text>
</g>
<!-- [root] aws_route.private_a_internet_out (expand)&#45;&gt;[root] aws_route_table.private_a (expand) -->
<g id="edge16" class="edge">
<title>[root] aws_route.private_a_internet_out (expand)&#45;&gt;[root] aws_route_table.private_a (expand)</title>
<path fill="none" stroke="black" d="M1776.03,-359.73C1791.99,-351.5 1807.91,-339.9 1817,-324 1824.94,-310.11 1826.96,-300.52 1817,-288 1812.44,-282.27 1740.92,-266.28 1679,-253.36"/>
<polygon fill="black" stroke="black" points="1679.95,-249.98 1669.45,-251.37 1678.53,-256.83 1679.95,-249.98"/>
</g>
<!-- [root] aws_route.private_c_internet_out (expand) -->
<g id="node8" class="node">
<title>[root] aws_route.private_c_internet_out (expand)</title>
<polygon fill="none" stroke="black" points="989,-396 791,-396 791,-360 989,-360 989,-396"/>
<text text-anchor="middle" x="890" y="-374.3" font-family="Times,serif" font-size="14.00">aws_route.private_c_internet_out</text>
</g>
<!-- [root] aws_route.private_c_internet_out (expand)&#45;&gt;[root] aws_nat_gateway.public_c (expand) -->
<g id="edge17" class="edge">
<title>[root] aws_route.private_c_internet_out (expand)&#45;&gt;[root] aws_nat_gateway.public_c (expand)</title>
<path fill="none" stroke="black" d="M862.78,-359.52C849.02,-350.68 832.13,-339.84 817.29,-330.3"/>
<polygon fill="black" stroke="black" points="819.46,-327.54 809.15,-325.08 815.67,-333.43 819.46,-327.54"/>
</g>
<!-- [root] aws_route_table.private_c (expand) -->
<g id="node12" class="node">
<title>[root] aws_route_table.private_c (expand)</title>
<polygon fill="none" stroke="black" points="1037.5,-252 878.5,-252 878.5,-216 1037.5,-216 1037.5,-252"/>
<text text-anchor="middle" x="958" y="-230.3" font-family="Times,serif" font-size="14.00">aws_route_table.private_c</text>
</g>
<!-- [root] aws_route.private_c_internet_out (expand)&#45;&gt;[root] aws_route_table.private_c (expand) -->
<g id="edge18" class="edge">
<title>[root] aws_route.private_c_internet_out (expand)&#45;&gt;[root] aws_route_table.private_c (expand)</title>
<path fill="none" stroke="black" d="M890.98,-359.69C892.63,-341.06 897.07,-311 909,-288 914.22,-277.93 921.88,-268.35 929.6,-260.18"/>
<polygon fill="black" stroke="black" points="931.9,-262.82 936.49,-253.28 926.95,-257.88 931.9,-262.82"/>
</g>
<!-- [root] aws_route.public_internet_access_a (expand) -->
<g id="node9" class="node">
<title>[root] aws_route.public_internet_access_a (expand)</title>
<polygon fill="none" stroke="black" points="442,-324 230,-324 230,-288 442,-288 442,-324"/>
<text text-anchor="middle" x="336" y="-302.3" font-family="Times,serif" font-size="14.00">aws_route.public_internet_access_a</text>
</g>
<!-- [root] aws_route.public_internet_access_a (expand)&#45;&gt;[root] aws_internet_gateway.main (expand) -->
<g id="edge19" class="edge">
<title>[root] aws_route.public_internet_access_a (expand)&#45;&gt;[root] aws_internet_gateway.main (expand)</title>
<path fill="none" stroke="black" d="M312.76,-287.7C301.13,-279.03 286.85,-268.4 274.18,-258.96"/>
<polygon fill="black" stroke="black" points="276.62,-256.42 266.51,-253.25 272.44,-262.03 276.62,-256.42"/>
</g>
<!-- [root] aws_route_table.public_a (expand) -->
<g id="node13" class="node">
<title>[root] aws_route_table.public_a (expand)</title>
<polygon fill="none" stroke="black" points="711.5,-252 556.5,-252 556.5,-216 711.5,-216 711.5,-252"/>
<text text-anchor="middle" x="634" y="-230.3" font-family="Times,serif" font-size="14.00">aws_route_table.public_a</text>
</g>
<!-- [root] aws_route.public_internet_access_a (expand)&#45;&gt;[root] aws_route_table.public_a (expand) -->
<g id="edge20" class="edge">
<title>[root] aws_route.public_internet_access_a (expand)&#45;&gt;[root] aws_route_table.public_a (expand)</title>
<path fill="none" stroke="black" d="M410.43,-287.52C452.38,-277.66 504.95,-265.31 548.57,-255.07"/>
<polygon fill="black" stroke="black" points="549.34,-258.48 558.27,-252.79 547.74,-251.67 549.34,-258.48"/>
</g>
<!-- [root] aws_route.public_internet_access_b (expand) -->
<g id="node10" class="node">
<title>[root] aws_route.public_internet_access_b (expand)</title>
<polygon fill="none" stroke="black" points="212,-324 0,-324 0,-288 212,-288 212,-324"/>
<text text-anchor="middle" x="106" y="-302.3" font-family="Times,serif" font-size="14.00">aws_route.public_internet_access_b</text>
</g>
<!-- [root] aws_route.public_internet_access_b (expand)&#45;&gt;[root] aws_internet_gateway.main (expand) -->
<g id="edge21" class="edge">
<title>[root] aws_route.public_internet_access_b (expand)&#45;&gt;[root] aws_internet_gateway.main (expand)</title>
<path fill="none" stroke="black" d="M139.97,-287.52C157.63,-278.43 179.41,-267.22 198.31,-257.49"/>
<polygon fill="black" stroke="black" points="199.83,-260.64 207.12,-252.95 196.63,-254.42 199.83,-260.64"/>
</g>
<!-- [root] aws_route_table.public_c (expand) -->
<g id="node14" class="node">
<title>[root] aws_route_table.public_c (expand)</title>
<polygon fill="none" stroke="black" points="499.5,-252 344.5,-252 344.5,-216 499.5,-216 499.5,-252"/>
<text text-anchor="middle" x="422" y="-230.3" font-family="Times,serif" font-size="14.00">aws_route_table.public_c</text>
</g>
<!-- [root] aws_route.public_internet_access_b (expand)&#45;&gt;[root] aws_route_table.public_c (expand) -->
<g id="edge22" class="edge">
<title>[root] aws_route.public_internet_access_b (expand)&#45;&gt;[root] aws_route_table.public_c (expand)</title>
<path fill="none" stroke="black" d="M184.93,-287.52C229.94,-277.54 286.5,-265.02 333.08,-254.7"/>
<polygon fill="black" stroke="black" points="333.6,-258.17 342.6,-252.59 332.08,-251.33 333.6,-258.17"/>
</g>
<!-- [root] aws_route_table.private_a (expand)&#45;&gt;[root] aws_vpc.main (expand) -->
<g id="edge23" class="edge">
<title>[root] aws_route_table.private_a (expand)&#45;&gt;[root] aws_vpc.main (expand)</title>
<path fill="none" stroke="black" d="M1508.47,-217.51C1505.28,-216.98 1502.11,-216.48 1499,-216 1362.34,-195.02 1326.41,-202.57 1190,-180 1183.53,-178.93 1176.78,-177.68 1170.08,-176.36"/>
<polygon fill="black" stroke="black" points="1170.88,-172.95 1160.39,-174.38 1169.48,-179.81 1170.88,-172.95"/>
</g>
<!-- [root] aws_route_table.private_c (expand)&#45;&gt;[root] aws_vpc.main (expand) -->
<g id="edge24" class="edge">
<title>[root] aws_route_table.private_c (expand)&#45;&gt;[root] aws_vpc.main (expand)</title>
<path fill="none" stroke="black" d="M996.21,-215.52C1016.37,-206.29 1041.31,-194.89 1062.78,-185.06"/>
<polygon fill="black" stroke="black" points="1063.99,-188.35 1071.63,-181.01 1061.08,-181.99 1063.99,-188.35"/>
</g>
<!-- [root] aws_route_table.public_a (expand)&#45;&gt;[root] aws_vpc.main (expand) -->
<g id="edge25" class="edge">
<title>[root] aws_route_table.public_a (expand)&#45;&gt;[root] aws_vpc.main (expand)</title>
<path fill="none" stroke="black" d="M711.73,-217.48C714.86,-216.96 717.96,-216.47 721,-216 863.34,-194.17 901.28,-205.52 1043,-180 1045.98,-179.46 1049.03,-178.87 1052.1,-178.23"/>
<polygon fill="black" stroke="black" points="1052.75,-181.68 1061.77,-176.11 1051.25,-174.84 1052.75,-181.68"/>
</g>
<!-- [root] aws_route_table.public_c (expand)&#45;&gt;[root] aws_vpc.main (expand) -->
<g id="edge26" class="edge">
<title>[root] aws_route_table.public_c (expand)&#45;&gt;[root] aws_vpc.main (expand)</title>
<path fill="none" stroke="black" d="M499.92,-221.63C515.5,-219.58 531.75,-217.59 547,-216 766.83,-193.1 824.75,-214.93 1043,-180 1045.99,-179.52 1049.05,-178.97 1052.13,-178.38"/>
<polygon fill="black" stroke="black" points="1052.74,-181.82 1061.81,-176.34 1051.3,-174.97 1052.74,-181.82"/>
</g>
<!-- [root] aws_route_table_association.private_a (expand) -->
<g id="node15" class="node">
<title>[root] aws_route_table_association.private_a (expand)</title>
<polygon fill="none" stroke="black" points="1628,-324 1402,-324 1402,-288 1628,-288 1628,-324"/>
<text text-anchor="middle" x="1515" y="-302.3" font-family="Times,serif" font-size="14.00">aws_route_table_association.private_a</text>
</g>
<!-- [root] aws_route_table_association.private_a (expand)&#45;&gt;[root] aws_route_table.private_a (expand) -->
<g id="edge27" class="edge">
<title>[root] aws_route_table_association.private_a (expand)&#45;&gt;[root] aws_route_table.private_a (expand)</title>
<path fill="none" stroke="black" d="M1533.04,-287.7C1541.73,-279.37 1552.31,-269.22 1561.86,-260.07"/>
<polygon fill="black" stroke="black" points="1564.02,-262.84 1568.82,-253.39 1559.18,-257.79 1564.02,-262.84"/>
</g>
<!-- [root] aws_subnet.private_a (expand) -->
<g id="node19" class="node">
<title>[root] aws_subnet.private_a (expand)</title>
<polygon fill="none" stroke="black" points="1490,-252 1356,-252 1356,-216 1490,-216 1490,-252"/>
<text text-anchor="middle" x="1423" y="-230.3" font-family="Times,serif" font-size="14.00">aws_subnet.private_a</text>
</g>
<!-- [root] aws_route_table_association.private_a (expand)&#45;&gt;[root] aws_subnet.private_a (expand) -->
<g id="edge28" class="edge">
<title>[root] aws_route_table_association.private_a (expand)&#45;&gt;[root] aws_subnet.private_a (expand)</title>
<path fill="none" stroke="black" d="M1492.26,-287.7C1480.98,-279.11 1467.17,-268.61 1454.86,-259.24"/>
<polygon fill="black" stroke="black" points="1457.08,-256.53 1447,-253.26 1452.84,-262.1 1457.08,-256.53"/>
</g>
<!-- [root] aws_route_table_association.private_c (expand) -->
<g id="node16" class="node">
<title>[root] aws_route_table_association.private_c (expand)</title>
<polygon fill="none" stroke="black" points="1144,-324 918,-324 918,-288 1144,-288 1144,-324"/>
<text text-anchor="middle" x="1031" y="-302.3" font-family="Times,serif" font-size="14.00">aws_route_table_association.private_c</text>
</g>
<!-- [root] aws_route_table_association.private_c (expand)&#45;&gt;[root] aws_route_table.private_c (expand) -->
<g id="edge29" class="edge">
<title>[root] aws_route_table_association.private_c (expand)&#45;&gt;[root] aws_route_table.private_c (expand)</title>
<path fill="none" stroke="black" d="M1012.96,-287.7C1004.27,-279.37 993.69,-269.22 984.14,-260.07"/>
<polygon fill="black" stroke="black" points="986.82,-257.79 977.18,-253.39 981.98,-262.84 986.82,-257.79"/>
</g>
<!-- [root] aws_subnet.private_c (expand) -->
<g id="node20" class="node">
<title>[root] aws_subnet.private_c (expand)</title>
<polygon fill="none" stroke="black" points="1190,-252 1056,-252 1056,-216 1190,-216 1190,-252"/>
<text text-anchor="middle" x="1123" y="-230.3" font-family="Times,serif" font-size="14.00">aws_subnet.private_c</text>
</g>
<!-- [root] aws_route_table_association.private_c (expand)&#45;&gt;[root] aws_subnet.private_c (expand) -->
<g id="edge30" class="edge">
<title>[root] aws_route_table_association.private_c (expand)&#45;&gt;[root] aws_subnet.private_c (expand)</title>
<path fill="none" stroke="black" d="M1053.74,-287.7C1065.02,-279.11 1078.83,-268.61 1091.14,-259.24"/>
<polygon fill="black" stroke="black" points="1093.16,-262.1 1099,-253.26 1088.92,-256.53 1093.16,-262.1"/>
</g>
<!-- [root] aws_route_table_association.public_a (expand) -->
<g id="node17" class="node">
<title>[root] aws_route_table_association.public_a (expand)</title>
<polygon fill="none" stroke="black" points="1384,-324 1162,-324 1162,-288 1384,-288 1384,-324"/>
<text text-anchor="middle" x="1273" y="-302.3" font-family="Times,serif" font-size="14.00">aws_route_table_association.public_a</text>
</g>
<!-- [root] aws_route_table_association.public_a (expand)&#45;&gt;[root] aws_route_table.public_a (expand) -->
<g id="edge31" class="edge">
<title>[root] aws_route_table_association.public_a (expand)&#45;&gt;[root] aws_route_table.public_a (expand)</title>
<path fill="none" stroke="black" d="M1161.56,-288.99C1158.68,-288.65 1155.82,-288.32 1153,-288 965.19,-266.89 913.78,-278.07 722.99,-252.18"/>
<polygon fill="black" stroke="black" points="723.6,-248.73 713.22,-250.83 722.65,-255.66 723.6,-248.73"/>
</g>
<!-- [root] aws_route_table_association.public_a (expand)&#45;&gt;[root] aws_subnet.public_a (expand) -->
<g id="edge32" class="edge">
<title>[root] aws_route_table_association.public_a (expand)&#45;&gt;[root] aws_subnet.public_a (expand)</title>
<path fill="none" stroke="black" d="M1273,-287.7C1273,-280.41 1273,-271.73 1273,-263.54"/>
<polygon fill="black" stroke="black" points="1276.5,-263.62 1273,-253.62 1269.5,-263.62 1276.5,-263.62"/>
</g>
<!-- [root] aws_route_table_association.public_c (expand) -->
<g id="node18" class="node">
<title>[root] aws_route_table_association.public_c (expand)</title>
<polygon fill="none" stroke="black" points="682,-324 460,-324 460,-288 682,-288 682,-324"/>
<text text-anchor="middle" x="571" y="-302.3" font-family="Times,serif" font-size="14.00">aws_route_table_association.public_c</text>
</g>
<!-- [root] aws_route_table_association.public_c (expand)&#45;&gt;[root] aws_route_table.public_c (expand) -->
<g id="edge33" class="edge">
<title>[root] aws_route_table_association.public_c (expand)&#45;&gt;[root] aws_route_table.public_c (expand)</title>
<path fill="none" stroke="black" d="M533.79,-287.52C514.24,-278.34 490.09,-266.99 469.24,-257.2"/>
<polygon fill="black" stroke="black" points="470.91,-254.11 460.37,-253.03 467.93,-260.45 470.91,-254.11"/>
</g>
<!-- [root] aws_route_table_association.public_c (expand)&#45;&gt;[root] aws_subnet.public_c (expand) -->
<g id="edge34" class="edge">
<title>[root] aws_route_table_association.public_c (expand)&#45;&gt;[root] aws_subnet.public_c (expand)</title>
<path fill="none" stroke="black" d="M626.95,-287.52C657.8,-277.88 696.3,-265.84 728.66,-255.73"/>
<polygon fill="black" stroke="black" points="729.43,-259.16 737.93,-252.83 727.35,-252.48 729.43,-259.16"/>
</g>
<!-- [root] aws_subnet.private_a (expand)&#45;&gt;[root] aws_vpc.main (expand) -->
<g id="edge35" class="edge">
<title>[root] aws_subnet.private_a (expand)&#45;&gt;[root] aws_vpc.main (expand)</title>
<path fill="none" stroke="black" d="M1355.68,-217.9C1300.44,-205.5 1222.98,-188.12 1170.11,-176.26"/>
<polygon fill="black" stroke="black" points="1170.89,-172.85 1160.36,-174.07 1169.35,-179.68 1170.89,-172.85"/>
</g>
<!-- [root] data.aws_region.current (expand) -->
<g id="node24" class="node">
<title>[root] data.aws_region.current (expand)</title>
<polygon fill="none" stroke="black" points="1346.5,-180 1199.5,-180 1199.5,-144 1346.5,-144 1346.5,-180"/>
<text text-anchor="middle" x="1273" y="-158.3" font-family="Times,serif" font-size="14.00">data.aws_region.current</text>
</g>
<!-- [root] aws_subnet.private_a (expand)&#45;&gt;[root] data.aws_region.current (expand) -->
<g id="edge36" class="edge">
<title>[root] aws_subnet.private_a (expand)&#45;&gt;[root] data.aws_region.current (expand)</title>
<path fill="none" stroke="black" d="M1385.54,-215.52C1365.86,-206.34 1341.55,-194.99 1320.56,-185.2"/>
<polygon fill="black" stroke="black" points="1322.16,-182.08 1311.62,-181.02 1319.2,-188.42 1322.16,-182.08"/>
</g>
<!-- [root] aws_subnet.private_c (expand)&#45;&gt;[root] aws_vpc.main (expand) -->
<g id="edge37" class="edge">
<title>[root] aws_subnet.private_c (expand)&#45;&gt;[root] aws_vpc.main (expand)</title>
<path fill="none" stroke="black" d="M1120.03,-215.7C1118.77,-208.32 1117.26,-199.52 1115.84,-191.25"/>
<polygon fill="black" stroke="black" points="1119.33,-190.86 1114.19,-181.6 1112.43,-192.04 1119.33,-190.86"/>
</g>
<!-- [root] aws_subnet.private_c (expand)&#45;&gt;[root] data.aws_region.current (expand) -->
<g id="edge38" class="edge">
<title>[root] aws_subnet.private_c (expand)&#45;&gt;[root] data.aws_region.current (expand)</title>
<path fill="none" stroke="black" d="M1160.46,-215.52C1180.14,-206.34 1204.45,-194.99 1225.44,-185.2"/>
<polygon fill="black" stroke="black" points="1226.8,-188.42 1234.38,-181.02 1223.84,-182.08 1226.8,-188.42"/>
</g>
<!-- [root] aws_subnet.public_a (expand)&#45;&gt;[root] aws_vpc.main (expand) -->
<g id="edge39" class="edge">
<title>[root] aws_subnet.public_a (expand)&#45;&gt;[root] aws_vpc.main (expand)</title>
<path fill="none" stroke="black" d="M1232.54,-215.52C1211.1,-206.25 1184.55,-194.78 1161.75,-184.93"/>
<polygon fill="black" stroke="black" points="1163.18,-181.74 1152.62,-180.98 1160.41,-188.16 1163.18,-181.74"/>
</g>
<!-- [root] aws_subnet.public_a (expand)&#45;&gt;[root] data.aws_region.current (expand) -->
<g id="edge40" class="edge">
<title>[root] aws_subnet.public_a (expand)&#45;&gt;[root] data.aws_region.current (expand)</title>
<path fill="none" stroke="black" d="M1273,-215.7C1273,-208.41 1273,-199.73 1273,-191.54"/>
<polygon fill="black" stroke="black" points="1276.5,-191.62 1273,-181.62 1269.5,-191.62 1276.5,-191.62"/>
</g>
<!-- [root] aws_subnet.public_c (expand)&#45;&gt;[root] aws_vpc.main (expand) -->
<g id="edge41" class="edge">
<title>[root] aws_subnet.public_c (expand)&#45;&gt;[root] aws_vpc.main (expand)</title>
<path fill="none" stroke="black" d="M860.35,-217.91C863.27,-217.26 866.17,-216.62 869,-216 946.15,-199.16 966.01,-197.58 1043,-180 1045.96,-179.32 1048.98,-178.62 1052.03,-177.9"/>
<polygon fill="black" stroke="black" points="1052.76,-181.32 1061.66,-175.58 1051.12,-174.52 1052.76,-181.32"/>
</g>
<!-- [root] aws_subnet.public_c (expand)&#45;&gt;[root] data.aws_region.current (expand) -->
<g id="edge42" class="edge">
<title>[root] aws_subnet.public_c (expand)&#45;&gt;[root] data.aws_region.current (expand)</title>
<path fill="none" stroke="black" d="M860.29,-217.61C863.23,-217.04 866.14,-216.5 869,-216 1000.42,-193.03 1034.89,-198.57 1167,-180 1173.84,-179.04 1180.93,-178 1188.04,-176.92"/>
<polygon fill="black" stroke="black" points="1188.36,-180.42 1197.71,-175.44 1187.3,-173.5 1188.36,-180.42"/>
</g>
<!-- [root] aws_vpc.main (expand)&#45;&gt;[root] provider[&quot;registry.terraform.io/hashicorp/aws&quot;] -->
<g id="edge45" class="edge">
<title>[root] aws_vpc.main (expand)&#45;&gt;[root] provider[&quot;registry.terraform.io/hashicorp/aws&quot;]</title>
<path fill="none" stroke="black" d="M1158.99,-147.67C1199.67,-136.37 1258.23,-120.1 1302.19,-107.89"/>
<polygon fill="black" stroke="black" points="1302.87,-111.33 1311.57,-105.29 1301,-104.59 1302.87,-111.33"/>
</g>
<!-- [root] aws_vpc.main (expand)&#45;&gt;[root] local.common_tags (expand) -->
<g id="edge43" class="edge">
<title>[root] aws_vpc.main (expand)&#45;&gt;[root] local.common_tags (expand)</title>
<path fill="none" stroke="black" d="M1072.29,-143.52C1051.48,-134.12 1025.65,-122.46 1003.62,-112.51"/>
<polygon fill="black" stroke="black" points="1005.09,-109.33 994.53,-108.4 1002.21,-115.71 1005.09,-109.33"/>
</g>
<!-- [root] aws_vpc.main (expand)&#45;&gt;[root] local.prefix (expand) -->
<g id="edge44" class="edge">
<title>[root] aws_vpc.main (expand)&#45;&gt;[root] local.prefix (expand)</title>
<path fill="none" stroke="black" d="M1158.86,-149.66C1169.09,-147.53 1179.87,-145.5 1190,-144 1381.89,-115.53 1432.27,-130.08 1625,-108 1633.99,-106.97 1643.35,-105.79 1652.68,-104.53"/>
<polygon fill="black" stroke="black" points="1653.1,-108.01 1662.53,-103.18 1652.15,-101.07 1653.1,-108.01"/>
</g>
<!-- [root] data.aws_region.current (expand)&#45;&gt;[root] provider[&quot;registry.terraform.io/hashicorp/aws&quot;] -->
<g id="edge46" class="edge">
<title>[root] data.aws_region.current (expand)&#45;&gt;[root] provider[&quot;registry.terraform.io/hashicorp/aws&quot;]</title>
<path fill="none" stroke="black" d="M1295.25,-143.7C1306.89,-134.64 1321.29,-123.44 1333.82,-113.69"/>
<polygon fill="black" stroke="black" points="1335.61,-116.74 1341.35,-107.84 1331.31,-111.21 1335.61,-116.74"/>
</g>
<!-- [root] var.owner -->
<g id="node26" class="node">
<title>[root] var.owner</title>
<polygon fill="none" stroke="black" points="940.5,-36 875.5,-36 875.5,0 946.5,0 946.5,-30 940.5,-36"/>
<polyline fill="none" stroke="black" points="940.5,-36 940.5,-30"/>
<polyline fill="none" stroke="black" points="946.5,-30 940.5,-30"/>
<text text-anchor="middle" x="911" y="-14.3" font-family="Times,serif" font-size="14.00">var.owner</text>
</g>
<!-- [root] var.prefix -->
<g id="node27" class="node">
<title>[root] var.prefix</title>
<polygon fill="none" stroke="black" points="1769.5,-36 1706.5,-36 1706.5,0 1775.5,0 1775.5,-30 1769.5,-36"/>
<polyline fill="none" stroke="black" points="1769.5,-36 1769.5,-30"/>
<polyline fill="none" stroke="black" points="1775.5,-30 1769.5,-30"/>
<text text-anchor="middle" x="1741" y="-14.3" font-family="Times,serif" font-size="14.00">var.prefix</text>
</g>
<!-- [root] var.project -->
<g id="node28" class="node">
<title>[root] var.project</title>
<polygon fill="none" stroke="black" points="1033,-36 965,-36 965,0 1039,0 1039,-30 1033,-36"/>
<polyline fill="none" stroke="black" points="1033,-36 1033,-30"/>
<polyline fill="none" stroke="black" points="1039,-30 1033,-30"/>
<text text-anchor="middle" x="1002" y="-14.3" font-family="Times,serif" font-size="14.00">var.project</text>
</g>
<!-- [root] local.common_tags (expand)&#45;&gt;[root] var.owner -->
<g id="edge47" class="edge">
<title>[root] local.common_tags (expand)&#45;&gt;[root] var.owner</title>
<path fill="none" stroke="black" d="M944.88,-71.7C939.81,-63.81 933.7,-54.3 928.07,-45.55"/>
<polygon fill="black" stroke="black" points="931.17,-43.9 922.81,-37.38 925.28,-47.68 931.17,-43.9"/>
</g>
<!-- [root] local.common_tags (expand)&#45;&gt;[root] var.project -->
<g id="edge48" class="edge">
<title>[root] local.common_tags (expand)&#45;&gt;[root] var.project</title>
<path fill="none" stroke="black" d="M967.37,-71.7C972.55,-63.81 978.8,-54.3 984.56,-45.55"/>
<polygon fill="black" stroke="black" points="987.36,-47.65 989.93,-37.37 981.51,-43.8 987.36,-47.65"/>
</g>
<!-- [root] local.prefix (expand)&#45;&gt;[root] var.prefix -->
<g id="edge49" class="edge">
<title>[root] local.prefix (expand)&#45;&gt;[root] var.prefix</title>
<path fill="none" stroke="black" d="M1741,-71.7C1741,-64.41 1741,-55.73 1741,-47.54"/>
<polygon fill="black" stroke="black" points="1744.5,-47.62 1741,-37.62 1737.5,-47.62 1744.5,-47.62"/>
</g>
<!-- [root] provider[&quot;registry.terraform.io/hashicorp/aws&quot;] (close) -->
<g id="node31" class="node">
<title>[root] provider[&quot;registry.terraform.io/hashicorp/aws&quot;] (close)</title>
<ellipse fill="none" stroke="black" cx="1031" cy="-450" rx="227.46" ry="18"/>
<text text-anchor="middle" x="1031" y="-446.3" font-family="Times,serif" font-size="14.00">[root] provider[&quot;registry.terraform.io/hashicorp/aws&quot;] (close)</text>
</g>
<!-- [root] provider[&quot;registry.terraform.io/hashicorp/aws&quot;] (close)&#45;&gt;[root] aws_instance.app_server (expand) -->
<g id="edge50" class="edge">
<title>[root] provider[&quot;registry.terraform.io/hashicorp/aws&quot;] (close)&#45;&gt;[root] aws_instance.app_server (expand)</title>
<path fill="none" stroke="black" d="M1258.87,-449.56C1482.68,-447.66 1796.16,-437.48 1835,-396 1890.38,-336.85 1865.83,-270.65 1806,-216 1779.65,-191.93 1743.04,-178.73 1709.41,-171.51"/>
<polygon fill="black" stroke="black" points="1710.11,-168.08 1699.62,-169.58 1708.75,-174.95 1710.11,-168.08"/>
</g>
<!-- [root] provider[&quot;registry.terraform.io/hashicorp/aws&quot;] (close)&#45;&gt;[root] aws_route.private_a_internet_out (expand) -->
<g id="edge51" class="edge">
<title>[root] provider[&quot;registry.terraform.io/hashicorp/aws&quot;] (close)&#45;&gt;[root] aws_route.private_a_internet_out (expand)</title>
<path fill="none" stroke="black" d="M1167.68,-435.25C1298.97,-422.05 1494.85,-402.35 1616.56,-390.11"/>
<polygon fill="black" stroke="black" points="1616.63,-393.62 1626.23,-389.13 1615.93,-386.65 1616.63,-393.62"/>
</g>
<!-- [root] provider[&quot;registry.terraform.io/hashicorp/aws&quot;] (close)&#45;&gt;[root] aws_route.private_c_internet_out (expand) -->
<g id="edge52" class="edge">
<title>[root] provider[&quot;registry.terraform.io/hashicorp/aws&quot;] (close)&#45;&gt;[root] aws_route.private_c_internet_out (expand)</title>
<path fill="none" stroke="black" d="M996.51,-431.88C978.04,-422.71 955.07,-411.3 935.19,-401.43"/>
<polygon fill="black" stroke="black" points="936.98,-398.42 926.47,-397.11 933.87,-404.69 936.98,-398.42"/>
</g>
<!-- [root] provider[&quot;registry.terraform.io/hashicorp/aws&quot;] (close)&#45;&gt;[root] aws_route.public_internet_access_a (expand) -->
<g id="edge53" class="edge">
<title>[root] provider[&quot;registry.terraform.io/hashicorp/aws&quot;] (close)&#45;&gt;[root] aws_route.public_internet_access_a (expand)</title>
<path fill="none" stroke="black" d="M914.43,-434.12C846.85,-424.77 760.29,-411.54 684,-396 587.43,-376.33 477.46,-347.02 407.44,-327.48"/>
<polygon fill="black" stroke="black" points="408.59,-324.16 398.01,-324.84 406.7,-330.9 408.59,-324.16"/>
</g>
<!-- [root] provider[&quot;registry.terraform.io/hashicorp/aws&quot;] (close)&#45;&gt;[root] aws_route.public_internet_access_b (expand) -->
<g id="edge54" class="edge">
<title>[root] provider[&quot;registry.terraform.io/hashicorp/aws&quot;] (close)&#45;&gt;[root] aws_route.public_internet_access_b (expand)</title>
<path fill="none" stroke="black" d="M873.53,-436.66C773.86,-427.81 642.48,-414.23 527,-396 408.53,-377.3 273.08,-347.05 188.54,-327.1"/>
<polygon fill="black" stroke="black" points="189.48,-323.72 178.94,-324.82 187.86,-330.53 189.48,-323.72"/>
</g>
<!-- [root] provider[&quot;registry.terraform.io/hashicorp/aws&quot;] (close)&#45;&gt;[root] aws_route_table_association.private_a (expand) -->
<g id="edge55" class="edge">
<title>[root] provider[&quot;registry.terraform.io/hashicorp/aws&quot;] (close)&#45;&gt;[root] aws_route_table_association.private_a (expand)</title>
<path fill="none" stroke="black" d="M1088.42,-432.15C1177.39,-406.05 1348.31,-355.91 1444.59,-327.66"/>
<polygon fill="black" stroke="black" points="1445.32,-331.09 1453.93,-324.92 1443.35,-324.37 1445.32,-331.09"/>
</g>
<!-- [root] provider[&quot;registry.terraform.io/hashicorp/aws&quot;] (close)&#45;&gt;[root] aws_route_table_association.private_c (expand) -->
<g id="edge56" class="edge">
<title>[root] provider[&quot;registry.terraform.io/hashicorp/aws&quot;] (close)&#45;&gt;[root] aws_route_table_association.private_c (expand)</title>
<path fill="none" stroke="black" d="M1031,-431.59C1031,-407.61 1031,-364.14 1031,-335.42"/>
<polygon fill="black" stroke="black" points="1034.5,-335.62 1031,-325.62 1027.5,-335.62 1034.5,-335.62"/>
</g>
<!-- [root] provider[&quot;registry.terraform.io/hashicorp/aws&quot;] (close)&#45;&gt;[root] aws_route_table_association.public_a (expand) -->
<g id="edge57" class="edge">
<title>[root] provider[&quot;registry.terraform.io/hashicorp/aws&quot;] (close)&#45;&gt;[root] aws_route_table_association.public_a (expand)</title>
<path fill="none" stroke="black" d="M1060.19,-431.87C1103.5,-406.46 1184.87,-358.71 1233.48,-330.19"/>
<polygon fill="black" stroke="black" points="1235.17,-333.26 1242.02,-325.18 1231.63,-327.22 1235.17,-333.26"/>
</g>
<!-- [root] provider[&quot;registry.terraform.io/hashicorp/aws&quot;] (close)&#45;&gt;[root] aws_route_table_association.public_c (expand) -->
<g id="edge58" class="edge">
<title>[root] provider[&quot;registry.terraform.io/hashicorp/aws&quot;] (close)&#45;&gt;[root] aws_route_table_association.public_c (expand)</title>
<path fill="none" stroke="black" d="M936.2,-433.2C889.27,-424.27 832.07,-411.73 782,-396 723.43,-377.6 658.75,-349.01 616.64,-329.23"/>
<polygon fill="black" stroke="black" points="618.34,-326.16 607.81,-325.05 615.35,-332.49 618.34,-326.16"/>
</g>
<!-- [root] root -->
<g id="node32" class="node">
<title>[root] root</title>
<ellipse fill="none" stroke="black" cx="1031" cy="-522" rx="47.39" ry="18"/>
<text text-anchor="middle" x="1031" y="-518.3" font-family="Times,serif" font-size="14.00">[root] root</text>
</g>
<!-- [root] root&#45;&gt;[root] provider[&quot;registry.terraform.io/hashicorp/aws&quot;] (close) -->
<g id="edge59" class="edge">
<title>[root] root&#45;&gt;[root] provider[&quot;registry.terraform.io/hashicorp/aws&quot;] (close)</title>
<path fill="none" stroke="black" d="M1031,-503.7C1031,-496.41 1031,-487.73 1031,-479.54"/>
<polygon fill="black" stroke="black" points="1034.5,-479.62 1031,-469.62 1027.5,-479.62 1034.5,-479.62"/>
</g>
</g>
</svg>
